HIERARCHY
ROOT Hips
{
  OFFSET 0.0 0.0 0.0
  CHANNELS 6 Xposition Yposition Zposition Zrotation Yrotation Xrotation
  JOINT LHipJoint
  {
    OFFSET 0.0 0.0 0.0
    CHANNELS 3 Zrotation Yrotation Xrotation
    JOINT LeftUpLeg
    {
      OFFSET 1.363059998 -1.794630051 0.839290023
      CHANNELS 3 Zrotation Yrotation Xrotation
      JOINT LeftLeg
      {
        OFFSET 2.448110104 -6.726130009 0.0
        CHANNELS 3 Zrotation Yrotation Xrotation
        JOINT LeftFoot
        {
          OFFSET 2.562200069 -7.039589882 0.0
          CHANNELS 3 Zrotation Yrotation Xrotation
          JOINT LeftToeBase
          {
            OFFSET 0.157639995 -0.433109999 2.322550058
            CHANNELS 3 Zrotation Yrotation Xrotation
            End Site
            {
              OFFSET 0.0 -0.0 1.189659953
            }
          }
        }
      }
    }
  }
  JOINT RHipJoint
  {
    OFFSET 0.0 0.0 0.0
    CHANNELS 3 Zrotation Yrotation Xrotation
    JOINT RightUpLeg
    {
      OFFSET -1.305520058 -1.794630051 0.839290023
      CHANNELS 3 Zrotation Yrotation Xrotation
      JOINT RightLeg
      {
        OFFSET -2.54253006 -6.985549927 0.0
        CHANNELS 3 Zrotation Yrotation Xrotation
        JOINT RightFoot
        {
          OFFSET -2.568259954 -7.056230068 0.0
          CHANNELS 3 Zrotation Yrotation Xrotation
          JOINT RightToeBase
          {
            OFFSET -0.164729998 -0.452589989 2.363149881
            CHANNELS 3 Zrotation Yrotation Xrotation
            End Site
            {
              OFFSET -0.0 -0.0 1.21081996
            }
          }
        }
      }
    }
  }
  JOINT LowerBack
  {
    OFFSET 0.0 0.0 0.0
    CHANNELS 3 Zrotation Yrotation Xrotation
    JOINT Spine
    {
      OFFSET 0.028270001 2.035589933 -0.193379998
      CHANNELS 3 Zrotation Yrotation Xrotation
      JOINT Spine1
      {
        OFFSET 0.05672 2.04885006 -0.042750001
        CHANNELS 3 Zrotation Yrotation Xrotation
        JOINT Neck
        {
          OFFSET 0.0 0.0 0.0
          CHANNELS 3 Zrotation Yrotation Xrotation
          JOINT Neck1
          {
            OFFSET -0.054170001 1.74624002 0.172020003
            CHANNELS 3 Zrotation Yrotation Xrotation
            JOINT Head
            {
              OFFSET 0.10407 1.761360049 -0.123970002
              CHANNELS 3 Zrotation Yrotation Xrotation
              End Site
              {
                OFFSET 0.0372 1.770439982 -0.062410001
              }
            }
          }
        }
        JOINT LeftShoulder
        {
          OFFSET 0.0 0.0 0.0
          CHANNELS 3 Zrotation Yrotation Xrotation
          JOINT LeftArm
          {
            OFFSET 3.362410069 1.200889945 -0.311210006
            CHANNELS 3 Zrotation Yrotation Xrotation
            JOINT LeftForeArm
            {
              OFFSET 4.982999802 -0.0 -0.0
              CHANNELS 3 Zrotation Yrotation Xrotation
              JOINT LeftHand
              {
                OFFSET 3.483560085 -0.0 -0.0
                CHANNELS 3 Zrotation Yrotation Xrotation
                JOINT LeftFingerBase
                {
                  OFFSET 0.0 0.0 0.0
                  CHANNELS 3 Zrotation Yrotation Xrotation
                  JOINT LeftHandIndex1
                  {
                    OFFSET 0.715260029 -0.0 -0.0
                    CHANNELS 3 Zrotation Yrotation Xrotation
                    End Site
                    {
                      OFFSET 0.576659977 -0.0 -0.0
                    }
                  }
                }
                JOINT LThumb
                {
                  OFFSET 0.0 0.0 0.0
                  CHANNELS 3 Zrotation Yrotation Xrotation
                  End Site
                  {
                    OFFSET 0.585470021 -0.0 0.585470021
                  }
                }
              }
            }
          }
        }
        JOINT RightShoulder
        {
          OFFSET 0.0 0.0 0.0
          CHANNELS 3 Zrotation Yrotation Xrotation
          JOINT RightArm
          {
            OFFSET -3.136600018 1.374050021 -0.404650003
            CHANNELS 3 Zrotation Yrotation Xrotation
            JOINT RightForeArm
            {
              OFFSET -5.241899967 -0.0 -0.0
              CHANNELS 3 Zrotation Yrotation Xrotation
              JOINT RightHand
              {
                OFFSET -3.444169998 -0.0 -0.0
                CHANNELS 3 Zrotation Yrotation Xrotation
                JOINT RightFingerBase
                {
                  OFFSET 0.0 0.0 0.0
                  CHANNELS 3 Zrotation Yrotation Xrotation
                  JOINT RightHandIndex1
                  {
                    OFFSET -0.622529984 -0.0 -0.0
                    CHANNELS 3 Zrotation Yrotation Xrotation
                    End Site
                    {
                      OFFSET -0.501900017 -0.0 -0.0
                    }
                  }
                }
                JOINT RThumb
                {
                  OFFSET 0.0 0.0 0.0
                  CHANNELS 3 Zrotation Yrotation Xrotation
                  End Site
                  {
                    OFFSET -0.509559989 -0.0 0.509559989
                  }
                }
              }
            }
          }
        }
      }
    }
  }
}
MOTION
Frames: 4
Frame Time: 0.0083333
-35.974205017 18.128400803 -41.946910858 -179.641998291 -66.399398804 179.095001221 0.0 -0.0 0.0 -15.626900673 8.012300491 -9.640402794 1.76399982 8.356099129 23.801099777 0.205400124 4.864299297 -11.737001419 0.089699998 -1.931500196 -5.316500664 0.0 -0.0 0.0 17.050302505 3.8557024 -25.436903 -9.424599648 -17.073299408 57.54719162 -0.030500211 -7.984398842 -11.992100716 -0.535999894 -4.690899849 13.028998375 -8.582800865 0.081499442 14.413700104 2.996500015 -1.16689992 1.787799835 8.357700348 -0.394400001 -5.954298973 -10.263896942 -11.388698578 -0.862900317 14.310099602 -15.652499199 1.3677001 5.313499451 -7.776299477 2.504100084 0.0 -0.0 0.0 -86.343902588 -42.928897858 50.362705231 50.486309052 -53.189800262 -26.563007355 0.0 -0.0 12.553700447 17.770399094 -9.695498466 -3.089600325 -7.125 0.0 0.0 -6.562699795 19.841798782 3.971399784 0.0 -0.0 0.0 47.88482666 41.853313446 -1.11228168 -65.866798401 57.680686951 -39.26279068 0.0 -0.0 15.472900391 -37.080497742 -20.56089592 14.86499691 7.125 -0.0 0.0 -9.286401749 -54.921104431 2.277300835 
-36.058906555 18.118099213 -41.872711182 -179.589996338 -65.640991211 179.261993408 0.0 -0.0 0.0 -16.030500412 7.431099892 -9.828501701 1.876900196 8.604700089 24.56649971 0.210600063 5.698902607 -12.605104446 0.075799979 -1.775500059 -4.885599136 0.0 -0.0 0.0 17.115102768 3.17730093 -26.493200302 -8.982098579 -16.796201706 56.02809906 -0.070900135 -7.39029789 -11.989199638 -0.428000063 -4.198500633 11.635702133 -8.088600159 0.139199927 14.717202187 2.999300718 -1.038600087 1.717900395 8.06139946 -0.326000094 -6.233498573 -10.012700081 -11.424100876 -0.837100029 13.994799614 -15.670397758 1.259700894 5.188100338 -7.78789854 2.423599958 0.0 -0.0 0.0 -87.240089417 -44.64390564 52.181587219 51.209514618 -53.471813202 -27.143112183 0.0 -0.0 12.474900246 17.815202713 -9.875300407 -3.154600382 -7.125 0.0 0.0 -6.530100822 19.651996613 3.979399204 0.0 -0.0 0.0 47.3358078 42.576591492 -2.17799592 -61.954597473 56.808704376 -35.972187042 0.0 -0.0 15.177397728 -39.878303528 -18.28030014 14.684900284 7.125 -0.0 0.0 -12.389701843 -52.846008301 2.421702623 
-36.147304535 18.108200073 -41.877109528 -179.824996948 -65.168411255 179.529998779 0.0 -0.0 0.0 -16.110897064 8.215499878 -10.054100037 1.967700243 8.798500061 25.167001724 0.30129993 4.810900688 -13.267299652 0.023400001 -0.986600041 -2.71200037 0.0 -0.0 0.0 17.529802322 2.541899443 -26.8554039 -8.497402191 -16.473199844 54.335113525 -0.088499926 -7.57589817 -12.541800499 -0.253800005 -3.241700649 8.952299118 -8.666100502 0.249300018 14.745599747 3.103100061 -0.983700097 1.78399992 8.50319767 -0.290699989 -6.176899433 -9.640100479 -11.428600311 -0.938599706 13.783498764 -15.678699493 1.396699548 5.061899662 -7.785901546 2.434300184 0.0 -0.0 0.0 -87.917892456 -46.417999268 54.066490173 51.887504578 -53.728996277 -27.688808441 0.0 -0.0 12.267900467 17.694900513 -9.948199272 -3.1547997 -7.125 0.0 0.0 -6.61539793 19.583896637 4.042199135 0.0 -0.0 0.0 45.9204216 43.880512238 -3.682393312 -61.022994995 56.576404572 -35.193588257 0.0 -0.0 15.498801231 -39.304298401 -17.997497559 14.194197655 7.125 -0.0 0.0 -11.741000175 -52.376296997 2.155902863 
-36.23670578 18.104299545 -41.859409332 179.742996216 -64.635818481 -179.850006104 0.0 -0.0 0.0 -16.460800171 8.716799736 -10.40130043 2.049900532 8.969202995 25.699106216 0.357000083 4.4404006 -13.80310154 0.010399999 -0.658299863 -1.808899879 0.0 -0.0 0.0 17.760099411 1.999800682 -27.479703903 -7.989602089 -16.111600876 52.52519989 -0.096899904 -7.795802116 -12.958000183 -0.200300008 -2.8816998 7.949501991 -9.147000313 0.239099577 14.708098412 3.316800833 -1.060199976 1.804300308 9.036398888 -0.320199758 -6.104900837 -9.972599983 -11.300302505 -1.180700064 13.751098633 -15.501298904 1.675200701 5.091299534 -7.682999611 2.558200121 0.0 -0.0 0.0 -88.740501404 -48.339092255 55.54649353 52.223487854 -53.853801727 -27.959890366 0.0 -0.0 12.134698868 17.631801605 -10.035801888 -3.170201063 -7.125 0.0 0.0 -6.659998894 19.497097015 4.082798481 0.0 -0.0 0.0 44.286800385 45.455806732 -5.071101189 -59.960708618 56.299503326 -34.30840683 0.0 -0.0 16.463703156 -38.486999512 -18.46380043 14.133399963 7.125 -0.0 0.0 -10.862498283 -52.756801605 2.093198776 
